Coordinates
version=1
nRows=33
nColumns=21
inDegrees=yes

Units are S.I. units (second, meters, Newtons, ...)
If the header above contains a line with 'inDegrees', this indicates whether rotational values are in degrees (yes) or radians (no).

endheader
time	sternoclavicular_r2	sternoclavicular_r3	unrotscap_r3	unrotscap_r2	acromioclavicular_r2	acromioclavicular_r3	acromioclavicular_r1	unrothum_r1	unrothum_r3	unrothum_r2	elv_angle	shoulder_elev	shoulder1_r2	shoulder_rot	elbow_flexion	pro_sup	deviation	flexion	wrist_hand_r1	wrist_hand_r3
      2.01005025	    -14.30495043	      6.05890185	     -6.05890185	     14.30495043	     -2.89646148	     23.40818281	     10.52181707	    -10.52181707	    -23.40818281	      2.89646148	    129.99781911	     59.11123293	   -129.99781911	     19.91208399	      0.01012170	      0.00000000	      0.00000000	     -0.00000000	     -0.00000000	      0.00000000
      2.03015075	    -14.37923572	      6.09036559	     -6.09036559	     14.37923572	     -2.91150274	     23.52974098	     10.57645663	    -10.57645663	    -23.52974098	      2.91150274	    129.99788620	     59.41819624	   -129.99788620	     19.91261782	      0.00983509	      0.00000000	      0.00000000	     -0.00000000	     -0.00000000	      0.00000000
      2.05025126	    -14.45378118	      6.12193953	     -6.12193953	     14.45378118	     -2.92659668	     23.65172489	     10.63128756	    -10.63128756	    -23.65172489	      2.92659668	    129.99794966	     59.72623465	   -129.99794966	     19.91336208	      0.00956387	      0.00000000	      0.00000000	     -0.00000000	     -0.00000000	      0.00000000
      2.07035176	    -14.52863210	      6.15364284	     -6.15364284	     14.52863210	     -2.94175247	     23.77420864	     10.68634317	    -10.68634317	    -23.77420864	      2.94175247	    129.99800973	     60.03553528	   -129.99800973	     19.91406437	      0.00930761	      0.00000000	      0.00000000	     -0.00000000	     -0.00000000	      0.00000000
      2.09045226	    -14.60377076	      6.18546804	     -6.18546804	     14.60377076	     -2.95696652	     23.89716325	     10.74161042	    -10.74161042	    -23.89716325	      2.95696652	    129.99806667	     60.34602493	   -129.99806667	     19.91461465	      0.00906538	      0.00000000	      0.00000000	     -0.00000000	     -0.00000000	      0.00000000
      2.11055276	    -14.67904892	      6.21735231	     -6.21735231	     14.67904892	     -2.97220881	     24.02034612	     10.79698027	    -10.79698027	    -24.02034612	      2.97220881	    129.99812067	     60.65709100	   -129.99812067	     19.91548172	      0.00883528	      0.00000000	      0.00000000	     -0.00000000	     -0.00000000	      0.00000000
      2.13065327	    -14.75441379	      6.24927331	     -6.24927331	     14.75441379	     -2.98746867	     24.14367089	     10.85241390	    -10.85241390	    -24.14367089	      2.98746867	    129.99817193	     60.96851538	   -129.99817193	     19.91682890	      0.00861638	      0.00000000	      0.00000000	     -0.00000000	     -0.00000000	      0.00000000
      2.15075377	    -14.83002875	      6.28130024	     -6.28130024	     14.83002875	     -3.00277915	     24.26740488	     10.90803148	    -10.90803148	    -24.26740488	      3.00277915	    129.99822063	     61.28097317	   -129.99822063	     19.91755015	      0.00840933	      0.00000000	      0.00000000	     -0.00000000	     -0.00000000	      0.00000000
      2.17085427	    -14.90568259	      6.31334364	     -6.31334364	     14.90568259	     -3.01809752	     24.39120253	     10.96367767	    -10.96367767	    -24.39120253	      3.01809752	    129.99826694	     61.59359168	   -129.99826694	     19.91863776	      0.00821215	      0.00000000	      0.00000000	     -0.00000000	     -0.00000000	      0.00000000
      2.19095477	    -14.98136627	      6.34539967	     -6.34539967	     14.98136627	     -3.03342192	     24.51504897	     11.01934579	    -11.01934579	    -24.51504897	      3.03342192	    129.99831100	     61.90633343	   -129.99831100	     19.91994557	      0.00802440	      0.00000000	      0.00000000	     -0.00000000	     -0.00000000	      0.00000000
      2.21105528	    -15.05708646	      6.37747117	     -6.37747117	     15.05708646	     -3.04875372	     24.63895517	     11.07504078	    -11.07504078	    -24.63895517	      3.04875372	    129.99835295	     62.21922608	   -129.99835295	     19.92114408	      0.00784573	      0.00000000	      0.00000000	     -0.00000000	     -0.00000000	      0.00000000
      2.23115578	    -15.13280824	      6.40954334	     -6.40954334	     15.13280824	     -3.06408584	     24.76286398	     11.13073694	    -11.13073694	    -24.76286398	      3.06408584	    129.99839292	     62.53212531	   -129.99839292	     19.92213814	      0.00767556	      0.00000000	      0.00000000	     -0.00000000	     -0.00000000	      0.00000000
      2.25125628	    -15.20858786	      6.44164001	     -6.44164001	     15.20858786	     -3.07942968	     24.88686743	     11.18647563	    -11.18647563	    -24.88686743	      3.07942968	    129.99843117	     62.84526352	   -129.99843117	     19.90923663	      0.00750687	      0.00000000	      0.00000000	     -0.00000000	     -0.00000000	      0.00000000
      2.27135678	    -15.28408772	      6.47361819	     -6.47361819	     15.28408772	     -3.09471686	     25.01041309	     11.24200856	    -11.24200856	    -25.01041309	      3.09471686	    129.99846754	     63.15724572	   -129.99846754	     19.90974382	      0.00735116	      0.00000000	      0.00000000	     -0.00000000	     -0.00000000	      0.00000000
      2.29145729	    -15.35945071	      6.50553839	     -6.50553839	     15.35945071	     -3.10997633	     25.13373477	     11.29744080	    -11.29744080	    -25.13373477	      3.10997633	    129.99850226	     63.46866232	   -129.99850226	     19.91026163	      0.00720238	      0.00000000	      0.00000000	     -0.00000000	     -0.00000000	      0.00000000
      2.31155779	    -15.43463827	      6.53738430	     -6.53738430	     15.43463827	     -3.12520028	     25.25676939	     11.35274402	    -11.35274402	    -25.25676939	      3.12520028	    129.99853541	     63.77935403	   -129.99853541	     19.91077856	      0.00706012	      0.00000000	      0.00000000	     -0.00000000	     -0.00000000	      0.00000000
      2.33165829	    -15.50962179	      6.56914378	     -6.56914378	     15.50962179	     -3.14038292	     25.37947014	     11.40789716	    -11.40789716	    -25.37947014	      3.14038292	    129.99856709	     64.08920261	   -129.99856709	     19.91134044	      0.00692412	      0.00000000	      0.00000000	     -0.00000000	     -0.00000000	      0.00000000
      2.35175879	    -15.58392699	      6.60061595	     -6.60061595	     15.58392699	     -3.15542821	     25.50106088	     11.46255136	    -11.46255136	    -25.50106088	      3.15542821	    129.99859740	     64.39624817	   -129.99859740	     19.91004692	      0.00678945	      0.00000000	      0.00000000	     -0.00000000	     -0.00000000	      0.00000000
      2.37185930	    -15.65834450	      6.63213570	     -6.63213570	     15.65834450	     -3.17049625	     25.62283542	     11.51728818	    -11.51728818	    -25.62283542	      3.17049625	    129.99862637	     64.70375786	   -129.99862637	     19.91045360	      0.00666450	      0.00000000	      0.00000000	     -0.00000000	     -0.00000000	      0.00000000
      2.39195980	    -15.73244232	      6.66352004	     -6.66352004	     15.73244232	     -3.18549955	     25.74408682	     11.57178985	    -11.57178985	    -25.74408682	      3.18549955	    129.99865409	     65.00994653	   -129.99865409	     19.91086800	      0.00654479	      0.00000000	      0.00000000	     -0.00000000	     -0.00000000	      0.00000000
      2.41206030	    -15.80618394	      6.69475350	     -6.69475350	     15.80618394	     -3.20043072	     25.86475535	     11.62602952	    -11.62602952	    -25.86475535	      3.20043072	    129.99868063	     65.31466327	   -129.99868063	     19.91128897	      0.00643005	      0.00000000	      0.00000000	     -0.00000000	     -0.00000000	      0.00000000
      2.43216080	    -15.87953271	      6.72582058	     -6.72582058	     15.87953271	     -3.21528236	     25.98478102	     11.67998024	    -11.67998024	    -25.98478102	      3.21528236	    129.99870604	     65.61775667	   -129.99870604	     19.91171651	      0.00632003	      0.00000000	      0.00000000	     -0.00000000	     -0.00000000	      0.00000000
      2.45226131	    -15.95245192	      6.75670572	     -6.75670572	     15.95245192	     -3.23004702	     26.10410379	     11.73361500	    -11.73361500	    -26.10410379	      3.23004702	    129.99873038	     65.91907506	   -129.99873038	     19.91215180	      0.00621448	      0.00000000	      0.00000000	     -0.00000000	     -0.00000000	      0.00000000
      2.47236181	    -16.02490646	      6.78739404	     -6.78739404	     16.02490646	     -3.24471759	     26.22266619	     11.78690798	    -11.78690798	    -26.22266619	      3.24471759	    129.99875370	     66.21847333	   -129.99875370	     19.91259128	      0.00611319	      0.00000000	      0.00000000	     -0.00000000	     -0.00000000	      0.00000000
      2.49246231	    -16.09686172	      6.81787089	     -6.81787089	     16.09686172	     -3.25928706	     26.34041156	     11.83983372	    -11.83983372	    -26.34041156	      3.25928706	    129.99877606	     66.51580843	   -129.99877606	     19.91303126	      0.00601593	      0.00000000	      0.00000000	     -0.00000000	     -0.00000000	      0.00000000
      2.51256281	    -16.16827844	      6.84811965	     -6.84811965	     16.16827844	     -3.27374750	     26.45727570	     11.89236334	    -11.89236334	    -26.45727570	      3.27374750	    129.99879749	     66.81091818	   -129.99879749	     19.91348318	      0.00592256	      0.00000000	      0.00000000	     -0.00000000	     -0.00000000	      0.00000000
      2.53266332	    -16.23912487	      6.87812685	     -6.87812685	     16.23912487	     -3.28809246	     26.57320664	     11.94447350	    -11.94447350	    -26.57320664	      3.28809246	    129.99881805	     67.10367139	   -129.99881805	     19.91393650	      0.00583285	      0.00000000	      0.00000000	     -0.00000000	     -0.00000000	      0.00000000
      2.55276382	    -16.30936665	      6.90787795	     -6.90787795	     16.30936665	     -3.30231499	     26.68814812	     11.99613891	    -11.99613891	    -26.68814812	      3.30231499	    129.99883777	     67.39392600	   -129.99883777	     19.91439071	      0.00574662	      0.00000000	      0.00000000	     -0.00000000	     -0.00000000	      0.00000000
      2.57286432	    -16.37896801	      6.93735780	     -6.93735780	     16.37896801	     -3.31640785	     26.80204166	     12.04733327	    -12.04733327	    -26.80204166	      3.31640785	    129.99885670	     67.68153428	   -129.99885670	     19.91484915	      0.00566375	      0.00000000	      0.00000000	     -0.00000000	     -0.00000000	      0.00000000
      2.59296482	    -16.44789429	      6.96655172	     -6.96655172	     16.44789429	     -3.33036402	     26.91483052	     12.09803108	    -12.09803108	    -26.91483052	      3.33036402	    129.99887485	     67.96635300	   -129.99887485	     19.91531233	      0.00558408	      0.00000000	      0.00000000	     -0.00000000	     -0.00000000	      0.00000000
      2.61306533	    -16.51611827	      6.99544818	     -6.99544818	     16.51611827	     -3.34417799	     27.02647015	     12.14821233	    -12.14821233	    -27.02647015	      3.34417799	    129.99889228	     68.24826963	   -129.99889228	     19.91576764	      0.00550741	      0.00000000	      0.00000000	     -0.00000000	     -0.00000000	      0.00000000
      2.63316583	    -16.58361096	      7.02403490	     -7.02403490	     16.58361096	     -3.35784388	     27.13691312	     12.19785569	    -12.19785569	    -27.13691312	      3.35784388	    129.99890902	     68.52716443	   -129.99890902	     19.91620924	      0.00543357	      0.00000000	      0.00000000	     -0.00000000	     -0.00000000	      0.00000000
      2.65326633	    -16.65035679	      7.05230528	     -7.05230528	     16.65035679	     -3.37135856	     27.24613395	     12.24694969	    -12.24694969	    -27.24613395	      3.37135856	    129.99892509	     68.80297301	   -129.99892509	     19.91661299	      0.00536228	      0.00000000	      0.00000000	     -0.00000000	     -0.00000000	      0.00000000
